<?xml version="1.0" encoding="UTF-8"?>
<svg xmlns="http://www.w3.org/2000/svg" version="1.1" viewBox="0 0 60.1 69">
  <!-- Generator: Adobe Illustrator 29.4.0, SVG Export Plug-In . SVG Version: 2.1.0 Build 37)  -->
  <defs>
    <style>
      .st0 {
        fill: #2fb457;
      }
    </style>
  </defs>
  <g id="LOCATION">
    <g>
      <path class="st0" d="M7.6,67.7c0,.3.3.6.7.6s.7-.2.7-.5c0-.3-.2-.5-.6-.6h-.5c-.9-.4-1-.9-1-1.3,0-.7.6-1.2,1.4-1.2s1.4.5,1.4,1.2h-.8c0-.3-.2-.5-.6-.5s-.6.2-.6.5,0,.4.5.5h.5c.9.4,1.2.9,1.1,1.4,0,.7-.7,1.2-1.5,1.2s-1.5-.6-1.5-1.3h.8Z"/>
      <path class="st0" d="M13.5,67.9h-1.5l-.4,1h-.8l1.5-4.1h.8l1.5,4.1h-.8l-.4-1ZM12.3,67.2h1l-.5-1.6-.5,1.6Z"/>
      <path class="st0" d="M19.1,68.9h-.7l-1.6-2.7v2.7h-.8v-4.1h.7l1.6,2.7v-2.7h.8v4.1Z"/>
      <path class="st0" d="M25.1,67.9h-1.5l-.4,1h-.8l1.5-4.1h.8l1.5,4.1h-.8l-.4-1ZM23.8,67.2h1l-.5-1.6-.5,1.6Z"/>
      <path class="st0" d="M30.6,68.9h-.7l-1.6-2.7v2.7h-.8v-4.1h.7l1.6,2.7v-2.7h.8v4.1Z"/>
      <path class="st0" d="M32.1,64.8h3.1v.7h-1.2v3.4h-.8v-3.4h-1.2v-.7Z"/>
      <path class="st0" d="M38.3,64.7c1.2,0,2.1.9,2.1,2.1s-.9,2.1-2.1,2.1-2.1-1-2.1-2.1.9-2.1,2.1-2.1ZM38.3,68.2c.7,0,1.3-.6,1.3-1.4s-.6-1.4-1.3-1.4-1.3.6-1.3,1.4.6,1.4,1.3,1.4Z"/>
      <path class="st0" d="M45,68.9h-.7l-1.6-2.7v2.7h-.8v-4.1h.7l1.6,2.7v-2.7h.8v4.1Z"/>
      <path class="st0" d="M46.8,64.8h.8v4.1h-.8v-4.1Z"/>
      <path class="st0" d="M51.2,64.7c1.2,0,2.1.9,2.1,2.1s-.9,2.1-2.1,2.1-2.1-1-2.1-2.1.9-2.1,2.1-2.1ZM51.2,68.2c.7,0,1.3-.6,1.3-1.4s-.6-1.4-1.3-1.4-1.3.6-1.3,1.4.6,1.4,1.3,1.4Z"/>
    </g>
  </g>
  <g id="HOTEL_NAME_x2F_ICON__x2013__3_lines">
    <g>
      <path class="st0" d="M20.2,53.4v5.5h-1v-2.3h-2.2v2.3h-1v-5.5h1v2.3h2.2v-2.3h1Z"/>
      <path class="st0" d="M25.1,53.3c1.6,0,2.8,1.3,2.8,2.8s-1.2,2.8-2.8,2.8-2.8-1.3-2.8-2.8,1.2-2.8,2.8-2.8ZM25.1,58c1,0,1.8-.8,1.8-1.8s-.8-1.8-1.8-1.8-1.8.8-1.8,1.8.8,1.8,1.8,1.8Z"/>
      <path class="st0" d="M29.3,53.4h4.1v.9h-1.6v4.6h-1v-4.6h-1.6v-.9Z"/>
      <path class="st0" d="M35.4,53.4h3.4v.9h-2.4v1.4h2.1v.9h-2.1v1.4h2.5v.9h-3.5v-5.5Z"/>
      <path class="st0" d="M40.9,53.4h1v4.6h2.1v.9h-3.2v-5.5Z"/>
    </g>
    <g>
      <path class="st0" d="M1,47.8c0,.4.4.8,1,.8s.9-.3.9-.7c0-.4-.2-.6-.8-.8l-.7-.2c-1.2-.4-1.4-1-1.4-1.5,0-1,.8-1.6,1.9-1.6s1.8.6,1.8,1.7h-1c0-.4-.3-.7-.8-.7s-.8.3-.8.6,0,.5.7.6l.7.2c1.2.3,1.6,1,1.5,1.7,0,1-.9,1.6-1.9,1.6s-2-.8-2-1.7h1Z"/>
      <path class="st0" d="M5.4,43.9h4.1v.9h-1.6v4.6h-1v-4.6h-1.6v-.9Z"/>
      <path class="st0" d="M11.4,48.3c.4,0,.6.3.6.6s-.3.6-.6.6-.6-.3-.6-.6.3-.6.6-.6Z"/>
      <path class="st0" d="M19.9,48.1h-2.1l-.5,1.3h-1.1l2.1-5.5h1.1l2.1,5.5h-1.1l-.5-1.3ZM18.2,47.2h1.4l-.7-2.1-.7,2.1Z"/>
      <path class="st0" d="M27.3,49.4h-.9l-2.1-3.6v3.6h-1v-5.5h1l2.1,3.6v-3.6h1v5.5Z"/>
      <path class="st0" d="M29.2,43.9h4.1v.9h-1.6v4.6h-1v-4.6h-1.6v-.9Z"/>
      <path class="st0" d="M39.5,43.9v5.5h-1v-2.3h-2.2v2.3h-1v-5.5h1v2.3h2.2v-2.3h1Z"/>
      <path class="st0" d="M44.3,43.8c1.6,0,2.8,1.3,2.8,2.8s-1.2,2.8-2.8,2.8-2.8-1.3-2.8-2.8,1.2-2.8,2.8-2.8ZM44.3,48.5c1,0,1.8-.8,1.8-1.8s-.8-1.8-1.8-1.8-1.8.8-1.8,1.8.8,1.8,1.8,1.8Z"/>
      <path class="st0" d="M53.2,49.4h-.9l-2.1-3.6v3.6h-1v-5.5h1l2.1,3.6v-3.6h1v5.5Z"/>
      <path class="st0" d="M57,49.4v-2.5l-2.1-3h1.2l1.4,2.1,1.4-2.1h1.2l-2.1,3v2.5h-1Z"/>
    </g>
    <g>
      <path class="st0" d="M21.5,34.4h4.1v.9h-1.6v4.6h-1v-4.6h-1.6v-.9Z"/>
      <path class="st0" d="M31.8,34.4v5.5h-1v-2.3h-2.2v2.3h-1v-5.5h1v2.3h2.2v-2.3h1Z"/>
      <path class="st0" d="M34.2,34.4h3.4v.9h-2.4v1.4h2.1v.9h-2.1v1.4h2.5v.9h-3.5v-5.5Z"/>
    </g>
    <g>
      <path class="st0" d="M18.7,0v10.4h10.4V0h-10.4ZM26.5,1.1c.4-.1.6.3.6.4,0-.1.3-.4.8-.4,0,0,0,0,0,0h0s0,0,0,0c0,.5-.3.7-.4.8.2,0,.6.2.4.6-.1.4-.5.4-.5.4.5-.5,0-.7-.3-.4l-.4-.4c.2-.2,0-.8-.4-.3,0,0,0-.4.4-.5ZM19.9,1.3s0,0,0,0h0s0,0,0,0c.5,0,.7.3.8.4,0-.2.2-.6.6-.4.4.1.4.5.4.5-.5-.5-.7,0-.4.3l-.4.4c-.2-.2-.8,0-.3.4,0,0-.4,0-.5-.4-.1-.4.3-.6.4-.6-.1,0-.4-.3-.4-.8ZM21.1,9.1c-.4.1-.6-.3-.6-.4,0,.1-.3.4-.8.4h0s0,0,0,0c0,0,0,0,0,0,0-.5.3-.7.4-.8-.2,0-.6-.2-.4-.6.1-.4.5-.4.5-.4-.5.5,0,.7.3.4l.4.4c-.2.2,0,.8.4.3,0,0,0,.4-.4.5ZM23.9,5.9l-2.4,2.4-.9-.9,2.3-2.4-2.2-2.1,1-.9,2.2,2.1,2.3-2.2.9.9-2.2,2.2,2.3,2.2-1,1-2.3-2.2ZM28,9s0,0,0,0h0s0,0,0,0c-.5,0-.7-.3-.8-.4,0,.2-.2.6-.6.4-.4-.1-.4-.5-.4-.5.5.5.7,0,.4-.3l.4-.4c.2.2.8,0,.3-.4,0,0,.4,0,.5.4.1.4-.3.6-.4.6.1,0,.4.3.4.8Z"/>
      <g>
        <path class="st0" d="M35.4,21.7c.5,0,.9.3.9.3,0,0,.2-.3.9-.3,1.6-.1,1.6-.7,1.6-1.4v-5.2h-5v5.2c0,.8.2,1.3,1.6,1.4ZM37.7,15.6c.2,0,.4.2.4.4s-.2.4-.4.4-.4-.2-.4-.4.2-.4.4-.4ZM37.7,17.4c.2,0,.4.2.4.4s-.2.4-.4.4-.4-.2-.4-.4.2-.4.4-.4ZM37.7,19.4c.2,0,.4.2.4.4s-.2.4-.4.4-.4-.2-.4-.4.2-.4.4-.4ZM36.3,16.3c.2,0,.4.2.4.4s-.2.4-.4.4-.4-.2-.4-.4.2-.4.4-.4ZM36.3,18.5c.2,0,.4.2.4.4s-.2.4-.4.4-.4-.2-.4-.4.2-.4.4-.4ZM36.3,20.6c.2,0,.4.2.4.4s-.2.4-.4.4-.4-.2-.4-.4.2-.4.4-.4ZM34.9,15.6c.2,0,.4.2.4.4s-.2.4-.4.4-.4-.2-.4-.4.2-.4.4-.4ZM34.9,17.4c.2,0,.4.2.4.4s-.2.4-.4.4-.4-.2-.4-.4.2-.4.4-.4ZM34.9,19.4c.2,0,.4.2.4.4s-.2.4-.4.4-.4-.2-.4-.4.2-.4.4-.4Z"/>
        <path class="st0" d="M41.3,22.4v-10.3h-10.4v13.7s.3-.7,7.8-.7,2.6-2.6,2.6-2.6ZM39.6,20.5c0,.9-.1,1.6-2.3,1.8-.5.1-.8.2-.9.4h-.3c0-.3-.4-.3-.9-.4-2.1-.3-2.3-.9-2.3-1.8v-6.3h6.6v6.3Z"/>
      </g>
      <g>
        <path class="st0" d="M25.4,25.1v-13h-1v13c.3,0,.7,0,1,0Z"/>
        <path class="st0" d="M23.4,25v-13h-1v13c.3,0,.7,0,1,0Z"/>
        <path class="st0" d="M27.3,25.3v-13.2h-1v13.1c.4,0,.7,0,1,.1Z"/>
        <path class="st0" d="M19.5,12.1h-.8v10.3s0,1.1.8,1.9v-12.2Z"/>
        <path class="st0" d="M21.5,25v-12.9h-1v12.8c.3,0,.6.1,1,.2Z"/>
        <path class="st0" d="M28.3,12.1v13.4c.6.1.8.2.8.2v-13.6h-.8Z"/>
      </g>
      <rect class="st0" x="36.5" width="1.3" height="1.2"/>
      <rect class="st0" x="38.4" width="1.3" height="1.2"/>
      <rect class="st0" x="31" width="1.2" height="1.2"/>
      <rect class="st0" x="40.3" width="1.2" height="1.2"/>
      <rect class="st0" x="32.7" width="1.3" height="1.2"/>
      <rect class="st0" x="34.6" width="1.3" height="1.2"/>
      <rect class="st0" x="36.5" y="1.9" width="1.3" height="1.2"/>
      <rect class="st0" x="38.4" y="1.9" width="1.3" height="1.2"/>
      <rect class="st0" x="31" y="1.9" width="1.2" height="1.2"/>
      <rect class="st0" x="40.3" y="1.9" width="1.2" height="1.2"/>
      <rect class="st0" x="32.7" y="1.9" width="1.3" height="1.2"/>
      <rect class="st0" x="34.6" y="1.9" width="1.3" height="1.2"/>
      <rect class="st0" x="36.5" y="3.7" width="1.3" height="1.2"/>
      <rect class="st0" x="38.4" y="3.7" width="1.3" height="1.2"/>
      <rect class="st0" x="31" y="3.7" width="1.2" height="1.2"/>
      <rect class="st0" x="40.3" y="3.7" width="1.2" height="1.2"/>
      <rect class="st0" x="32.7" y="3.7" width="1.3" height="1.2"/>
      <rect class="st0" x="34.6" y="3.7" width="1.3" height="1.2"/>
      <rect class="st0" x="36.5" y="5.6" width="1.3" height="1.2"/>
      <rect class="st0" x="38.4" y="5.6" width="1.3" height="1.2"/>
      <rect class="st0" x="31" y="5.6" width="1.2" height="1.2"/>
      <rect class="st0" x="40.3" y="5.6" width="1.2" height="1.2"/>
      <rect class="st0" x="32.7" y="5.6" width="1.3" height="1.2"/>
      <rect class="st0" x="34.6" y="5.6" width="1.3" height="1.2"/>
      <rect class="st0" x="36.5" y="7.4" width="1.3" height="1.2"/>
      <rect class="st0" x="38.4" y="7.4" width="1.3" height="1.2"/>
      <rect class="st0" x="31" y="7.4" width="1.2" height="1.2"/>
      <rect class="st0" x="40.3" y="7.4" width="1.2" height="1.2"/>
      <rect class="st0" x="32.7" y="7.4" width="1.3" height="1.2"/>
      <rect class="st0" x="34.6" y="7.4" width="1.3" height="1.2"/>
      <rect class="st0" x="36.5" y="9.3" width="1.3" height="1.2"/>
      <rect class="st0" x="38.4" y="9.3" width="1.3" height="1.2"/>
      <rect class="st0" x="31" y="9.3" width="1.2" height="1.2"/>
      <rect class="st0" x="40.3" y="9.3" width="1.2" height="1.2"/>
      <rect class="st0" x="32.7" y="9.3" width="1.3" height="1.2"/>
      <rect class="st0" x="34.6" y="9.3" width="1.3" height="1.2"/>
    </g>
  </g>
</svg>